<svg viewBox="0 0 640 96" xmlns="http://www.w3.org/2000/svg" role="img" aria-label="EC Home Inspections">
  <g transform="translate(0 4)">
    <path fill="#1E6FD9" d="M48 4 L10 26 L10 84 L48 84 L48 72 L22 72 L22 56 L42 56 L42 44 L22 44 L22 32 L48 17 Z"/>
    <path fill="#F97316" d="M48 4 L86 26 L86 44 L74 44 L74 33 L72 32 L72 25 L62 25 L62 26 L48 17 Z M48 72 L74 72 L74 56 L86 56 L86 84 L48 84 Z"/>
  </g>
  <g>
    <path fill="#FFFFFF" d="M114.265625 61.0V31.8984375H134.4609375V37.5234375H121.16015625V43.5390625H133.40625V49.046875H121.16015625V55.375H134.44140625V61.0Z"/>
    <path fill="#FFFFFF" d="M151.965625 61.390625Q148.03984375 61.390625 144.924609375 59.65234375Q141.809375 57.9140625 140.002734375 54.583984375Q138.19609375 51.25390625 138.19609375 46.46875Q138.19609375 41.6640625 140.022265625 38.32421875Q141.8484375 34.984375 144.9734375 33.24609375Q148.0984375 31.5078125 151.965625 31.5078125Q155.42265625 31.5078125 158.1765625 32.7578125Q160.93046875 34.0078125 162.66875 36.390625Q164.40703125 38.7734375 164.8171875 42.171875H157.84453125Q157.5125 40.04296875 155.998828125 38.802734375Q154.48515625 37.5625 152.14140625 37.5625Q148.93828125 37.5625 147.092578125 39.896484375Q145.246875 42.23046875 145.246875 46.46875Q145.246875 50.84375 147.10234375 53.08984375Q148.9578125 55.3359375 152.10234375 55.3359375Q154.44609375 55.3359375 155.96953125 54.095703125Q157.49296875 52.85546875 157.8640625 50.7265625H164.83671875Q164.64140625 52.6796875 163.713671875 54.57421875Q162.7859375 56.46875 161.16484375 58.01171875Q159.54375 59.5546875 157.2390625 60.47265625Q154.934375 61.390625 151.965625 61.390625Z"/>
    <path fill="#FFFFFF" d="M182.78183593749998 61.0V31.8984375H189.67636718749998V43.32421875H201.29746093749998V31.8984375H208.17246093749998V61.0H201.29746093749998V48.94921875H189.67636718749998V61.0Z"/>
    <path fill="#FFFFFF" d="M226.12636718749997 61.390625Q222.20058593749997 61.390625 219.06582031249997 59.65234375Q215.93105468749997 57.9140625 214.09511718749997 54.57421875Q212.25917968749997 51.234375 212.25917968749997 46.46875Q212.25917968749997 41.6640625 214.09511718749997 38.32421875Q215.93105468749997 34.984375 219.06582031249997 33.24609375Q222.20058593749997 31.5078125 226.12636718749997 31.5078125Q230.01308593749997 31.5078125 233.14785156249997 33.24609375Q236.28261718749997 34.984375 238.11855468749997 38.32421875Q239.95449218749997 41.6640625 239.95449218749997 46.46875Q239.95449218749997 51.25390625 238.11855468749997 54.59375Q236.28261718749997 57.93359375 233.14785156249997 59.662109375Q230.01308593749997 61.390625 226.12636718749997 61.390625ZM226.12636718749997 55.3359375Q229.29042968749997 55.3359375 231.10683593749997 53.060546875Q232.92324218749997 50.78515625 232.92324218749997 46.46875Q232.92324218749997 42.1328125 231.10683593749997 39.84765625Q229.29042968749997 37.5625 226.12636718749997 37.5625Q222.94277343749997 37.5625 221.12636718749997 39.84765625Q219.30996093749997 42.1328125 219.30996093749997 46.46875Q219.30996093749997 50.78515625 221.12636718749997 53.060546875Q222.94277343749997 55.3359375 226.12636718749997 55.3359375Z"/>
    <path fill="#FFFFFF" d="M244.04121093749995 61.0V31.8984375H254.78339843749995L258.49433593749995 43.2265625Q258.78730468749995 44.22265625 259.16816406249995 45.82421875Q259.54902343749995 47.42578125 259.93964843749995 49.28125Q260.33027343749995 51.13671875 260.68183593749995 52.875Q261.01386718749995 51.13671875 261.39472656249995 49.291015625Q261.77558593749995 47.4453125 262.15644531249995 45.833984375Q262.53730468749995 44.22265625 262.83027343749995 43.2265625L266.48261718749995 31.8984375H277.24433593749995V61.0H270.31074218749995V48.4609375Q270.31074218749995 47.34765625 270.35957031249995 45.541015625Q270.40839843749995 43.734375 270.46699218749995 41.625Q270.52558593749995 39.515625 270.56464843749995 37.5625Q270.07636718749995 39.6328125 269.53925781249995 41.72265625Q269.00214843749995 43.8125 268.51386718749995 45.580078125Q268.02558593749995 47.34765625 267.67402343749995 48.4609375L263.53339843749995 61.0H257.77167968749995L253.57246093749995 48.4609375Q253.24042968749995 47.38671875 252.75214843749995 45.6875Q252.26386718749995 43.98828125 251.72675781249995 41.966796875Q251.18964843749995 39.9453125 250.70136718749995 37.89453125Q250.74042968749995 39.80859375 250.79902343749995 41.83984375Q250.85761718749995 43.87109375 250.90644531249995 45.619140625Q250.95527343749995 47.3671875 250.95527343749995 48.4609375V61.0Z"/>
    <path fill="#FFFFFF" d="M281.97558593749994 61.0V31.8984375H302.17089843749994V37.5234375H288.87011718749994V43.5390625H301.11621093749994V49.046875H288.87011718749994V55.375H302.15136718749994V61.0Z"/>
  </g>
  <g>
    <path fill="#AFC0D8" d="M328.14453125 31.8984375V61.0H322.9296875V31.8984375Z"/>
    <path fill="#AFC0D8" d="M334.20390625 61.0V31.8984375H340.10234375L350.1609375 47.93359375Q350.9421875 49.18359375 351.86015625 50.853515625Q352.778125 52.5234375 353.73515625 54.7109375Q353.57890625 52.6015625 353.50078125 50.55078125Q353.42265625 48.5 353.42265625 47.171875V31.8984375H358.715625V61.0H352.79765625L343.715625 46.56640625Q342.95390625 45.35546875 342.280078125 44.1640625Q341.60625 42.97265625 340.8640625 41.56640625Q340.121875 40.16015625 339.1453125 38.265625Q339.28203125 40.9609375 339.39921875 43.1484375Q339.51640625 45.3359375 339.51640625 46.546875V61.0Z"/>
    <path fill="#AFC0D8" d="M374.98984375 61.44921875Q369.91171875 61.44921875 366.894140625 59.10546875Q363.8765625 56.76171875 363.70078125 52.4453125H368.8375Q369.01328125 54.75 370.7515625 55.873046875Q372.48984375 56.99609375 374.95078125 56.99609375Q377.52890625 56.99609375 379.159765625 55.833984375Q380.790625 54.671875 380.790625 52.796875Q380.790625 51.09765625 379.3453125 50.228515625Q377.9 49.359375 375.53671875 48.75390625L372.2359375 47.89453125Q368.58359375 46.95703125 366.542578125 45.0625Q364.5015625 43.16796875 364.5015625 40.08203125Q364.5015625 37.50390625 365.88828125 35.580078125Q367.275 33.65625 369.67734375 32.58203125Q372.0796875 31.5078125 375.1265625 31.5078125Q378.23203125 31.5078125 380.566015625 32.58203125Q382.9 33.65625 384.228125 35.55078125Q385.55625 37.4453125 385.61484375 39.8671875H380.55625Q380.3609375 38.01171875 378.886328125 36.9765625Q377.41171875 35.94140625 375.0484375 35.94140625Q372.5875 35.94140625 371.18125 37.025390625Q369.775 38.109375 369.775 39.76953125Q369.775 41.0 370.526953125 41.771484375Q371.27890625 42.54296875 372.421484375 43.01171875Q373.5640625 43.48046875 374.7359375 43.7734375L377.45078125 44.4765625Q379.59921875 45.00390625 381.562109375 45.990234375Q383.525 46.9765625 384.765234375 48.63671875Q386.00546875 50.296875 386.00546875 52.8359375Q386.00546875 55.39453125 384.696875 57.337890625Q383.38828125 59.28125 380.92734375 60.365234375Q378.46640625 61.44921875 374.98984375 61.44921875Z"/>
    <path fill="#AFC0D8" d="M390.99062499999997 61.0V31.8984375H401.86953124999997Q405.20937499999997 31.8984375 407.49453124999997 33.1484375Q409.77968749999997 34.3984375 410.95156249999997 36.576171875Q412.12343749999997 38.75390625 412.12343749999997 41.52734375Q412.12343749999997 44.3203125 410.94179687499997 46.498046875Q409.76015624999997 48.67578125 407.45546874999997 49.916015625Q405.15078124999997 51.15625 401.79140624999997 51.15625H396.20546874999997V61.0ZM396.20546874999997 46.859375H401.10781249999997Q404.05703124999997 46.859375 405.42421874999997 45.35546875Q406.79140624999997 43.8515625 406.79140624999997 41.52734375Q406.79140624999997 39.203125 405.42421874999997 37.73828125Q404.05703124999997 36.2734375 401.06874999999997 36.2734375H396.20546874999997Z"/>
    <path fill="#AFC0D8" d="M416.99140624999995 61.0V31.8984375H435.89765624999995V36.29296875H422.20624999999995V44.14453125H434.88203124999995V48.48046875H422.20624999999995V56.60546875H435.97578124999995V61.0Z"/>
    <path fill="#AFC0D8" d="M453.81249999999994 61.390625Q449.98437499999994 61.390625 446.97656249999994 59.61328125Q443.96874999999994 57.8359375 442.23046874999994 54.49609375Q440.49218749999994 51.15625 440.49218749999994 46.46875Q440.49218749999994 41.76171875 442.24023437499994 38.412109375Q443.98828124999994 35.0625 446.99609374999994 33.28515625Q450.00390624999994 31.5078125 453.81249999999994 31.5078125Q456.99609374999994 31.5078125 459.60351562499994 32.69921875Q462.21093749999994 33.890625 463.91015624999994 36.146484375Q465.60937499999994 38.40234375 466.07812499999994 41.5859375H460.82421874999994Q460.33593749999994 39.0078125 458.42187499999994 37.591796875Q456.50781249999994 36.17578125 453.89062499999994 36.17578125Q450.31640624999994 36.17578125 448.02148437499994 38.841796875Q445.72656249999994 41.5078125 445.72656249999994 46.46875Q445.72656249999994 51.48828125 448.03124999999994 54.10546875Q450.33593749999994 56.72265625 453.87109374999994 56.72265625Q456.48828124999994 56.72265625 458.41210937499994 55.306640625Q460.33593749999994 53.890625 460.82421874999994 51.3125H466.09765624999994Q465.68749999999994 54.10546875 464.08593749999994 56.390625Q462.48437499999994 58.67578125 459.86718749999994 60.033203125Q457.24999999999994 61.390625 453.81249999999994 61.390625Z"/>
    <path fill="#AFC0D8" d="M469.77421874999993 36.29296875V31.8984375H492.93828124999993V36.29296875H483.97343749999993V61.0H478.75859374999993V36.29296875Z"/>
    <path fill="#AFC0D8" d="M502.9039062499999 31.8984375V61.0H497.6890624999999V31.8984375Z"/>
    <path fill="#AFC0D8" d="M521.4242187499999 61.390625Q517.5960937499999 61.390625 514.5785156249999 59.61328125Q511.5609374999999 57.8359375 509.8031249999999 54.49609375Q508.0453124999999 51.15625 508.0453124999999 46.46875Q508.0453124999999 41.76171875 509.8031249999999 38.412109375Q511.5609374999999 35.0625 514.5785156249999 33.28515625Q517.5960937499999 31.5078125 521.4242187499999 31.5078125Q525.2328124999999 31.5078125 528.2503906249999 33.28515625Q531.2679687499999 35.0625 533.0160156249999 38.412109375Q534.7640624999999 41.76171875 534.7640624999999 46.46875Q534.7640624999999 51.17578125 533.0160156249999 54.505859375Q531.2679687499999 57.8359375 528.2503906249999 59.61328125Q525.2328124999999 61.390625 521.4242187499999 61.390625ZM521.4242187499999 56.72265625Q524.9789062499999 56.72265625 527.2445312499999 54.0859375Q529.5101562499999 51.44921875 529.5101562499999 46.46875Q529.5101562499999 41.46875 527.2445312499999 38.822265625Q524.9789062499999 36.17578125 521.4242187499999 36.17578125Q517.8499999999999 36.17578125 515.5648437499999 38.822265625Q513.2796874999999 41.46875 513.2796874999999 46.46875Q513.2796874999999 51.4296875 515.5648437499999 54.076171875Q517.8499999999999 56.72265625 521.4242187499999 56.72265625Z"/>
    <path fill="#AFC0D8" d="M539.90546875 61.0V31.8984375H545.80390625L555.8625 47.93359375Q556.64375 49.18359375 557.56171875 50.853515625Q558.4796875 52.5234375 559.43671875 54.7109375Q559.28046875 52.6015625 559.20234375 50.55078125Q559.12421875 48.5 559.12421875 47.171875V31.8984375H564.4171875V61.0H558.49921875L549.4171875 46.56640625Q548.65546875 45.35546875 547.981640625 44.1640625Q547.3078125 42.97265625 546.565625 41.56640625Q545.8234375 40.16015625 544.846875 38.265625Q544.98359375 40.9609375 545.10078125 43.1484375Q545.21796875 45.3359375 545.21796875 46.546875V61.0Z"/>
    <path fill="#AFC0D8" d="M580.69140625 61.44921875Q575.61328125 61.44921875 572.595703125 59.10546875Q569.578125 56.76171875 569.40234375 52.4453125H574.5390625Q574.71484375 54.75 576.453125 55.873046875Q578.19140625 56.99609375 580.65234375 56.99609375Q583.23046875 56.99609375 584.861328125 55.833984375Q586.4921875 54.671875 586.4921875 52.796875Q586.4921875 51.09765625 585.046875 50.228515625Q583.6015625 49.359375 581.23828125 48.75390625L577.9375 47.89453125Q574.28515625 46.95703125 572.244140625 45.0625Q570.203125 43.16796875 570.203125 40.08203125Q570.203125 37.50390625 571.58984375 35.580078125Q572.9765625 33.65625 575.37890625 32.58203125Q577.78125 31.5078125 580.828125 31.5078125Q583.93359375 31.5078125 586.267578125 32.58203125Q588.6015625 33.65625 589.9296875 35.55078125Q591.2578125 37.4453125 591.31640625 39.8671875H586.2578125Q586.0625 38.01171875 584.587890625 36.9765625Q583.11328125 35.94140625 580.75 35.94140625Q578.2890625 35.94140625 576.8828125 37.025390625Q575.4765625 38.109375 575.4765625 39.76953125Q575.4765625 41.0 576.228515625 41.771484375Q576.98046875 42.54296875 578.123046875 43.01171875Q579.265625 43.48046875 580.4375 43.7734375L583.15234375 44.4765625Q585.30078125 45.00390625 587.263671875 45.990234375Q589.2265625 46.9765625 590.466796875 48.63671875Q591.70703125 50.296875 591.70703125 52.8359375Q591.70703125 55.39453125 590.3984375 57.337890625Q589.08984375 59.28125 586.62890625 60.365234375Q584.16796875 61.44921875 580.69140625 61.44921875Z"/>
  </g>
</svg>
